<svg xmlns="http://www.w3.org/2000/svg" width="64" height="64" viewBox="0 0 64 64" shape-rendering="crispEdges">
  <rect width="64" height="64" fill="none"/>
  <rect x="12" y="27" width="29" height="16" fill="#16a34a"/>
  <rect x="34" y="18" width="18" height="16" fill="#22c55e"/>
  <rect x="48" y="23" width="8" height="7" fill="#22c55e"/>
  <rect x="52" y="30" width="5" height="5" fill="#14532d"/>
  <rect x="39" y="22" width="4" height="4" fill="#111827"/>
  <rect x="47" y="32" width="10" height="4" fill="#ef4444"/>
  <rect x="52" y="35" width="3" height="5" fill="#f8fafc"/>
  <rect x="15" y="19" width="8" height="8" fill="#15803d"/>
  <rect x="20" y="14" width="14" height="8" fill="#dc2626"/>
  <rect x="28" y="9" width="14" height="9" fill="#991b1b"/>
  <rect x="8" y="35" width="8" height="6" fill="#15803d"/>
  <rect x="4" y="39" width="7" height="5" fill="#14532d"/>
  <rect x="17" y="43" width="6" height="8" fill="#166534"/>
  <rect x="34" y="43" width="6" height="8" fill="#166534"/>
  <rect x="18" y="51" width="9" height="4" fill="#052e16"/>
  <rect x="35" y="51" width="9" height="4" fill="#052e16"/>
</svg>
