<svg xmlns="http://www.w3.org/2000/svg" width="64" height="64" viewBox="0 0 64 64" shape-rendering="crispEdges">
  <rect width="64" height="64" fill="none"/>
  <rect x="23" y="11" width="18" height="8" fill="#7c2d12"/>
  <rect x="20" y="19" width="24" height="7" fill="#9a3412"/>
  <rect x="23" y="26" width="18" height="11" fill="#f6c28b"/>
  <rect x="26" y="29" width="4" height="4" fill="#111827"/>
  <rect x="36" y="29" width="4" height="4" fill="#111827"/>
  <rect x="27" y="37" width="14" height="14" fill="#15803d"/>
  <rect x="18" y="39" width="8" height="14" fill="#2563eb"/>
  <rect x="42" y="39" width="8" height="14" fill="#2563eb"/>
  <rect x="24" y="51" width="8" height="7" fill="#78350f"/>
  <rect x="36" y="51" width="8" height="7" fill="#78350f"/>
  <rect x="10" y="17" width="10" height="10" fill="#facc15"/>
  <rect x="12" y="19" width="6" height="6" fill="#fef08a"/>
  <rect x="47" y="15" width="8" height="8" fill="#38bdf8"/>
  <rect x="49" y="17" width="4" height="4" fill="#e0f2fe"/>
</svg>
