<svg xmlns="http://www.w3.org/2000/svg" width="64" height="64" viewBox="0 0 64 64" shape-rendering="crispEdges">
  <rect width="64" height="64" fill="none"/>
  <rect x="24" y="9" width="18" height="8" fill="#7c2d12"/>
  <rect x="21" y="17" width="24" height="7" fill="#9a3412"/>
  <rect x="24" y="24" width="18" height="12" fill="#f6c28b"/>
  <rect x="27" y="28" width="4" height="4" fill="#111827"/>
  <rect x="37" y="28" width="4" height="4" fill="#111827"/>
  <rect x="29" y="35" width="13" height="15" fill="#15803d"/>
  <rect x="19" y="39" width="9" height="13" fill="#2563eb"/>
  <rect x="43" y="38" width="7" height="15" fill="#2563eb"/>
  <rect x="25" y="51" width="8" height="7" fill="#78350f"/>
  <rect x="37" y="51" width="8" height="7" fill="#78350f"/>
  <rect x="12" y="10" width="8" height="5" fill="#ef4444"/>
  <rect x="9" y="15" width="5" height="5" fill="#f97316"/>
  <rect x="16" y="18" width="7" height="4" fill="#facc15"/>
  <rect x="44" y="13" width="5" height="28" fill="#cbd5e1"/>
  <rect x="49" y="8" width="4" height="12" fill="#facc15"/>
</svg>
