<svg xmlns="http://www.w3.org/2000/svg" width="64" height="64" viewBox="0 0 64 64" shape-rendering="crispEdges">
  <rect width="64" height="64" fill="none"/>
  <rect x="23" y="10" width="18" height="8" fill="#7c2d12"/>
  <rect x="20" y="18" width="24" height="7" fill="#9a3412"/>
  <rect x="23" y="25" width="18" height="11" fill="#f6c28b"/>
  <rect x="26" y="28" width="4" height="4" fill="#111827"/>
  <rect x="36" y="28" width="4" height="4" fill="#111827"/>
  <rect x="29" y="33" width="8" height="3" fill="#b45309"/>
  <rect x="27" y="36" width="14" height="15" fill="#16a34a"/>
  <rect x="16" y="25" width="7" height="18" fill="#2563eb"/>
  <rect x="43" y="25" width="7" height="18" fill="#2563eb"/>
  <rect x="11" y="18" width="6" height="9" fill="#f6c28b"/>
  <rect x="50" y="18" width="6" height="9" fill="#f6c28b"/>
  <rect x="24" y="51" width="8" height="7" fill="#78350f"/>
  <rect x="36" y="51" width="8" height="7" fill="#78350f"/>
  <rect x="29" y="2" width="6" height="6" fill="#facc15"/>
  <rect x="23" y="5" width="4" height="4" fill="#fde047"/>
  <rect x="37" y="5" width="4" height="4" fill="#fde047"/>
</svg>
